<?xml version="1.0" encoding="UTF-8" standalone="no"?>
<!-- Created with Inkscape (http://www.inkscape.org/) -->

<svg
   xmlns:dc="http://purl.org/dc/elements/1.1/"
   xmlns:cc="http://creativecommons.org/ns#"
   xmlns:rdf="http://www.w3.org/1999/02/22-rdf-syntax-ns#"
   xmlns:svg="http://www.w3.org/2000/svg"
   xmlns="http://www.w3.org/2000/svg"
   xmlns:sodipodi="http://sodipodi.sourceforge.net/DTD/sodipodi-0.dtd"
   xmlns:inkscape="http://www.inkscape.org/namespaces/inkscape"
   id="svg2"
   version="1.1"
   inkscape:version="0.91 r13725"
   sodipodi:docname="bass.svg"
   width="20.152998"
   height="23.142426">
  <metadata
     id="metadata8">
    <rdf:RDF>
      <cc:Work
         rdf:about="">
        <dc:format>image/svg+xml</dc:format>
        <dc:type
           rdf:resource="http://purl.org/dc/dcmitype/StillImage" />
        <dc:title></dc:title>
      </cc:Work>
    </rdf:RDF>
  </metadata>
  <defs
     id="defs6" />
  <sodipodi:namedview
     pagecolor="#ffffff"
     bordercolor="#666666"
     borderopacity="1"
     objecttolerance="10"
     gridtolerance="10"
     guidetolerance="10"
     inkscape:pageopacity="0"
     inkscape:pageshadow="2"
     inkscape:window-width="1680"
     inkscape:window-height="987"
     id="namedview4"
     showgrid="false"
     showguides="true"
     inkscape:guide-bbox="true"
     inkscape:zoom="4"
     inkscape:cx="-72.28799"
     inkscape:cy="-42.715145"
     inkscape:window-x="-8"
     inkscape:window-y="-8"
     inkscape:window-maximized="1"
     inkscape:current-layer="svg2"
     inkscape:snap-bbox="true"
     inkscape:bbox-paths="true"
     inkscape:snap-bbox-edge-midpoints="true"
     fit-margin-top="0"
     fit-margin-left="0"
     fit-margin-right="0"
     fit-margin-bottom="0">
    <sodipodi:guide
       orientation="1,0"
       position="-304.72072,77.876998"
       id="guide2987" />
    <sodipodi:guide
       orientation="1,0"
       position="-302.65529,102.11544"
       id="guide2989" />
  </sodipodi:namedview>
  <g
     id="g3821"
     transform="translate(-415.64658,-108.68757)">
    <path
       d="m 422.27658,108.7 c 0.36,-0.03 1.65,0 2.13,0.03 3.6,0.42 6.03,2.1 6.93,4.86 0.27,0.84 0.36,1.5 0.36,2.58 0,0.9 -0.03,1.35 -0.18,2.16 -0.78,3.78 -3.54,7.08 -8.37,9.96 -1.74,1.05 -3.87,2.13 -6.18,3.12 -0.39,0.18 -0.75,0.33 -0.81,0.36 -0.06,0.03 -0.15,0.06 -0.18,0.06 -0.15,0 -0.33,-0.18 -0.33,-0.33 0,-0.15 0.06,-0.21 0.51,-0.48 3,-1.77 5.13,-3.21 6.84,-4.74 0.51,-0.45 1.59,-1.5 1.95,-1.95 1.89,-2.19 2.88,-4.32 3.15,-6.78 0.06,-0.42 0.06,-1.77 0,-2.19 -0.24,-2.01 -0.93,-3.63 -2.04,-4.71 -0.63,-0.63 -1.29,-1.02 -2.07,-1.2 -1.62,-0.39 -3.36,0.15 -4.56,1.44 -0.54,0.6 -1.05,1.47 -1.32,2.22 l -0.09,0.21 0.24,-0.12 c 0.39,-0.21 0.63,-0.24 1.11,-0.24 0.3,0 0.45,0 0.66,0.06 1.92,0.48 2.85,2.55 1.95,4.38 -0.45,0.99 -1.41,1.62 -2.46,1.71 -1.47,0.09 -2.91,-0.87 -3.39,-2.25 -0.18,-0.57 -0.21,-1.32 -0.03,-2.28 0.39,-2.25 1.83,-4.2 3.81,-5.19 0.69,-0.36 1.59,-0.6 2.37,-0.69 z m 11.58,2.52 c 0.84,-0.21 1.71,0.3 1.89,1.14 0.3,1.17 -0.72,2.19 -1.89,1.89 -0.99,-0.21 -1.5,-1.32 -1.02,-2.25 0.18,-0.39 0.6,-0.69 1.02,-0.78 z m 0,7.5 c 0.84,-0.21 1.71,0.3 1.89,1.14 0.21,0.87 -0.3,1.71 -1.14,1.89 -0.87,0.21 -1.71,-0.3 -1.89,-1.14 -0.21,-0.84 0.3,-1.71 1.14,-1.89 z"
       style="fill:#000000;stroke:none"
       id="path3354"
       inkscape:connector-curvature="0" />
  </g>
</svg>
