<?xml version="1.0" encoding="utf-8"?>
<!-- Generator: Adobe Illustrator 19.1.0, SVG Export Plug-In . SVG Version: 6.00 Build 0)  -->
<svg version="1.1" id="Ebene_1" xmlns="http://www.w3.org/2000/svg" xmlns:xlink="http://www.w3.org/1999/xlink" x="0px" y="0px"
	 viewBox="0 0 32 32" style="enable-background:new 0 0 32 32;" xml:space="preserve">
<g id="g3850" transform="translate(0.1996001,-0.08838835)">
	<path id="path2991" d="M15.4,1.4L15.5,25c-0.5-0.7-2.6-1.1-4.5,0s-2.9,3.1-2.3,4.3
		c0.7,1.3,3.1,2,5.1,0.7c1.4-1,2.1-2.3,2.3-2.7v-12c5.1,3.4,7.6,4,5,11.1c2.5-3.3,2.4-5.4,1-7.6c0.2-1.5,0.2-2.6,0.1-3.5
		c1.5-8.4-3.7-7.7-6.1-13V1.4L15.4,1.4z M16.1,6.3c5.1,2.8,5.6,5.5,5.7,7.6c-1-2.3-3.4-3-5.7-6.8V6.3z M16.1,10.5
		c5.2,4.4,5.2,3.4,5.8,8C20.4,16.3,18,14,16.1,10.5z"/>
</g>
</svg>
