<?xml version="1.0" encoding="UTF-8" standalone="no"?>
<!-- Created with Inkscape (http://www.inkscape.org/) -->

<svg
   xmlns:dc="http://purl.org/dc/elements/1.1/"
   xmlns:cc="http://creativecommons.org/ns#"
   xmlns:rdf="http://www.w3.org/1999/02/22-rdf-syntax-ns#"
   xmlns:svg="http://www.w3.org/2000/svg"
   xmlns="http://www.w3.org/2000/svg"
   xmlns:sodipodi="http://sodipodi.sourceforge.net/DTD/sodipodi-0.dtd"
   xmlns:inkscape="http://www.inkscape.org/namespaces/inkscape"
   id="svg2"
   version="1.1" inkscape:version="0.48.1 r9760"
   sodipodi:docname="Music-sixteenthnote.svg">
  <metadata
     id="metadata8">
    <rdf:RDF>
      <cc:Work
         rdf:about="">
        <dc:format>image/svg+xml</dc:format>
        <dc:type
           rdf:resource="http://purl.org/dc/dcmitype/StillImage" />
        <dc:title></dc:title>
      </cc:Work>
    </rdf:RDF>
  </metadata>
  <defs
     id="defs6" />
  <sodipodi:namedview
     pagecolor="#ffffff"
     bordercolor="#666666"
     borderopacity="1"
     objecttolerance="10"
     gridtolerance="10"
     guidetolerance="10"
     inkscape:pageopacity="0"
     inkscape:pageshadow="2"
     inkscape:window-width="1920"
     inkscape:window-height="1031"
     id="namedview4"
     showgrid="false"
     showguides="true"
     inkscape:guide-bbox="true"
     inkscape:zoom="4"
     inkscape:cx="162.07572"
     inkscape:cy="90.555691"
     inkscape:window-x="0"
     inkscape:window-y="24"
     inkscape:window-maximized="1"
     inkscape:current-layer="svg2"
     inkscape:snap-bbox="true"
     inkscape:bbox-paths="true"
     inkscape:snap-bbox-edge-midpoints="true">
    <sodipodi:guide
       orientation="1,0"
       position="110.92586,46.046988"
       id="guide2987" />
    <sodipodi:guide
       orientation="1,0"
       position="112.99129,70.285442"
       id="guide2989" />
  </sodipodi:namedview>
  <g
     id="g3821">
 <path fill="#000000" stroke="none" d="M44.69,94.59C34.78,94.5,34.93,94.53,35.05,94.59C35.169999999999995,94.68,35.62,95.19,36.01,95.7C37.78,98.04,39.22,101.55,39.58,104.43C39.79,105.99000000000001,39.61,107.7,39.129999999999995,109.29C38.44,111.60000000000001,37.209999999999994,113.76,34.89999999999999,116.73C34.599999999999994,117.12,34.32999999999999,117.45,34.29999999999999,117.48C34.26999999999999,117.54,34.29999999999999,117.63000000000001,34.47999999999999,118.26C35.01999999999999,119.94000000000001,35.85999999999999,122.7,36.15999999999999,123.75L36.24999999999999,124.17L36.63999999999999,124.17C38.10999999999999,124.26,39.39999999999999,124.68,40.599999999999994,125.46000000000001C42.42999999999999,126.69000000000001,43.66,128.67000000000002,43.989999999999995,130.98000000000002C44.08,131.43,44.10999999999999,132.27,44.05,132.72000000000003C43.959999999999994,133.74000000000004,43.72,134.55000000000004,43.3,135.45000000000002C42.459999999999994,137.16000000000003,41.019999999999996,138.51000000000002,39.28,139.17000000000002L38.95,139.29000000000002L38.980000000000004,140.55C38.980000000000004,142.29000000000002,38.92,144.18,38.77,145.17000000000002C38.32,148.23000000000002,36.580000000000005,150.66000000000003,34.300000000000004,151.38000000000002C33.730000000000004,151.56000000000003,33.400000000000006,151.59000000000003,32.71,151.59000000000003C32.02,151.59000000000003,31.69,151.56000000000003,31.060000000000002,151.38000000000002C29.92,151.11,28.930000000000003,150.54000000000002,28.12,149.73000000000002C27.130000000000003,148.74,26.560000000000002,147.57000000000002,26.41,146.19000000000003C26.32,145.38000000000002,26.47,144.66000000000003,26.86,144.06000000000003C27.49,143.07000000000002,28.689999999999998,142.50000000000003,29.86,142.53000000000003C31.36,142.62000000000003,32.5,143.85000000000002,32.589999999999996,145.47000000000003C32.65,146.94000000000003,31.659999999999997,148.17000000000002,30.219999999999995,148.44000000000003C29.769999999999996,148.50000000000003,29.379999999999995,148.47000000000003,28.929999999999996,148.35000000000002L28.719999999999995,148.26000000000002L28.809999999999995,148.38000000000002C29.199999999999996,148.92000000000002,29.589999999999996,149.31000000000003,30.129999999999995,149.64000000000001C31.479999999999997,150.51000000000002,33.19,150.66000000000003,34.48,150.00000000000003C35.919999999999995,149.28000000000003,37,147.72000000000003,37.449999999999996,145.65000000000003C37.599999999999994,144.99000000000004,37.69,144.15000000000003,37.74999999999999,142.62000000000003C37.779999999999994,141.78000000000003,37.779999999999994,139.68000000000004,37.74999999999999,139.62000000000003C37.71999999999999,139.62000000000003,37.56999999999999,139.62000000000003,37.38999999999999,139.65000000000003C36.73,139.77000000000004,36.39999999999999,139.77000000000004,35.559999999999995,139.77000000000004C34.51,139.77000000000004,33.849999999999994,139.71000000000004,32.949999999999996,139.47000000000003C28.929999999999996,138.48000000000002,25.839999999999996,135.12000000000003,25.149999999999995,131.01000000000002C25.029999999999994,130.35000000000002,25.029999999999994,130.02,25.029999999999994,129.18C25.029999999999994,128.34,25.029999999999994,128.04000000000002,25.179999999999993,127.26C25.539999999999992,124.98,26.589999999999993,122.64,28.479999999999993,119.97L31.269999999999992,116.37C31.80999999999999,115.71000000000001,32.22999999999999,115.17,32.22999999999999,115.14C32.22999999999999,115.11,32.139999999999986,114.81,32.04999999999999,114.45C31.08999999999999,111.24000000000001,30.63999999999999,109.17,30.45999999999999,106.77000000000001C30.33999999999999,105.39000000000001,30.30999999999999,103.68,30.39999999999999,102.81000000000002C30.72999999999999,100.14000000000001,31.77999999999999,97.74000000000001,33.51999999999999,95.73000000000002C33.87999999999999,95.31000000000002,34.50999999999999,94.68000000000002,34.68999999999999,94.59000000000002ZM36.699999999999996,99.3C36.55,99,36.4,98.75999999999999,36.4,98.75999999999999C36.37,98.75999999999999,36.22,98.85,36.1,98.96999999999998C33.7,100.70999999999998,32.230000000000004,103.16999999999999,31.840000000000003,106.07999999999998C31.780000000000005,106.61999999999999,31.780000000000005,107.48999999999998,31.810000000000002,107.96999999999998C31.900000000000002,109.25999999999999,32.29,111.08999999999999,32.89,113.18999999999998C33.04,113.60999999999999,33.13,113.96999999999998,33.13,113.99999999999999C33.13,114.02999999999999,33.970000000000006,112.88999999999999,34.36,112.31999999999998C36.25,109.58999999999997,37.24,107.24999999999997,37.51,104.78999999999998C37.6,104.21999999999998,37.629999999999995,103.04999999999998,37.57,102.41999999999997C37.48,101.18999999999997,37.3,100.49999999999997,36.7,99.29999999999997ZM33.76,120C33.55,119.28,33.37,118.68,33.339999999999996,118.68C33.339999999999996,118.68,32.13999999999999,120.15,31.479999999999997,121.05000000000001C28.689999999999998,124.68,27.459999999999997,127.35000000000001,27.129999999999995,130.35000000000002C27.099999999999994,130.56000000000003,27.099999999999994,131.04000000000002,27.099999999999994,131.43000000000004C27.099999999999994,132.12000000000003,27.099999999999994,132.18000000000004,27.159999999999993,132.54000000000005C27.279999999999994,133.08000000000004,27.429999999999993,133.53000000000006,27.669999999999995,134.01000000000005C28.359999999999996,135.39000000000004,29.499999999999993,136.56000000000006,31.089999999999996,137.43000000000004C32.05,137.97000000000003,33.16,138.33000000000004,34.3,138.51000000000005C35.08,138.63000000000005,36.339999999999996,138.63000000000005,37.239999999999995,138.48000000000005C37.74999999999999,138.42000000000004,37.69,138.45000000000005,37.66,138.18000000000004C37.419999999999995,134.85000000000002,36.94,131.85000000000002,36.04,128.10000000000002C35.949999999999996,127.71000000000002,35.86,127.35000000000002,35.86,127.32000000000002C35.83,127.29000000000002,35.44,127.32000000000002,35.05,127.41000000000003C34.15,127.59000000000003,33.4,127.98000000000002,32.83,128.55C32.11,129.27,31.75,130.20000000000002,31.779999999999998,131.19C31.839999999999996,132.15,32.26,133.02,33.01,133.77C33.37,134.13000000000002,33.73,134.4,34.18,134.67000000000002C34.51,134.85000000000002,34.54,134.88000000000002,34.6,135.00000000000003C34.78,135.42000000000002,34.42,135.90000000000003,34,135.87000000000003C33.82,135.84000000000003,33.16,135.51000000000002,32.74,135.24000000000004C31.96,134.73000000000005,31.360000000000003,134.13000000000002,30.880000000000003,133.41000000000003C29.110000000000003,130.71000000000004,29.890000000000004,126.99000000000002,32.59,125.22000000000003C32.89,125.01000000000003,33.400000000000006,124.74000000000002,33.760000000000005,124.59000000000003C34.06,124.50000000000003,34.78000000000001,124.29000000000003,34.900000000000006,124.29000000000003C34.96000000000001,124.29000000000003,34.99000000000001,124.29000000000003,34.99000000000001,124.26000000000003C35.02000000000001,124.23000000000003,34.48000000000001,122.34000000000003,33.76000000000001,120.00000000000003ZM37.54,127.41C37.36,127.38,37.18,127.35,37.15,127.35C37.12,127.35,37.15,127.55999999999999,37.33,128.37C38.08,131.55,38.589999999999996,134.67000000000002,38.83,137.46C38.89,138.18,38.83,138.15,39.339999999999996,137.88C40.12,137.51999999999998,40.779999999999994,136.92,41.31999999999999,136.10999999999999C42.39999999999999,134.48999999999998,42.519999999999996,132.42,41.61999999999999,130.55999999999997C40.80999999999999,128.93999999999997,39.30999999999999,127.76999999999997,37.53999999999999,127.40999999999997Z" style="-webkit-tap-highlight-color: rgba(0, 0, 0, 0);"></path> 
 
  </g>
</svg>
