<?xml version="1.0" encoding="utf-8"?>
<!-- Generator: Adobe Illustrator 19.1.0, SVG Export Plug-In . SVG Version: 6.00 Build 0)  -->
<svg version="1.1" id="Ebene_1" xmlns="http://www.w3.org/2000/svg" xmlns:xlink="http://www.w3.org/1999/xlink" x="0px" y="0px"
	 viewBox="0 0 32 32" style="enable-background:new 0 0 32 32;" xml:space="preserve">
<g id="g3862" transform="translate(-0.24707682,-46.942827)">
	<g id="stave" transform="translate(0.67340029,-0.33670034)">
	</g>
	<path id="path3859" d="M11.9,75c0-1.3,0.6-2.5,1.9-3.5c1.2-1,2.6-1.6,4-1.6c0.8,0,1.5,0.2,2.2,0.6V48.3h0.8v24.5
		c0,1.4-0.6,2.6-1.8,3.5c-1.2,0.9-2.5,1.4-4,1.4c-0.8,0-1.5-0.2-2.1-0.7C12.2,76.4,11.9,75.8,11.9,75 M13.5,76.2
		c1.3,0,2.6-0.6,3.9-1.7c1.3-1.1,2-2,2-2.5c0-0.4-0.1-0.5-0.4-0.5c-0.9,0-2.1,0.5-3.7,1.6c-1.6,1.1-2.3,1.9-2.3,2.6
		C12.9,76,13.1,76.2,13.5,76.2"/>
</g>
</svg>
