<?xml version="1.0" encoding="UTF-8" standalone="no"?>
<!-- Created with Inkscape (http://www.inkscape.org/) -->

<svg
   xmlns:dc="http://purl.org/dc/elements/1.1/"
   xmlns:cc="http://creativecommons.org/ns#"
   xmlns:rdf="http://www.w3.org/1999/02/22-rdf-syntax-ns#"
   xmlns:svg="http://www.w3.org/2000/svg"
   xmlns="http://www.w3.org/2000/svg"
   xmlns:sodipodi="http://sodipodi.sourceforge.net/DTD/sodipodi-0.dtd"
   xmlns:inkscape="http://www.inkscape.org/namespaces/inkscape"
   id="svg2"
   version="1.1"
   inkscape:version="0.91 r13725"
   sodipodi:docname="violin.svg"
   width="19.66"
   height="57.056801">
  <metadata
     id="metadata8">
    <rdf:RDF>
      <cc:Work
         rdf:about="">
        <dc:format>image/svg+xml</dc:format>
        <dc:type
           rdf:resource="http://purl.org/dc/dcmitype/StillImage" />
        <dc:title></dc:title>
      </cc:Work>
    </rdf:RDF>
  </metadata>
  <defs
     id="defs6" />
  <sodipodi:namedview
     pagecolor="#ffffff"
     bordercolor="#666666"
     borderopacity="1"
     objecttolerance="10"
     gridtolerance="10"
     guidetolerance="10"
     inkscape:pageopacity="0"
     inkscape:pageshadow="2"
     inkscape:window-width="1680"
     inkscape:window-height="987"
     id="namedview4"
     showgrid="true"
     showguides="true"
     inkscape:guide-bbox="true"
     inkscape:zoom="4"
     inkscape:cx="99.92072"
     inkscape:cy="106.72468"
     inkscape:window-x="-8"
     inkscape:window-y="-8"
     inkscape:window-maximized="1"
     inkscape:current-layer="svg2"
     inkscape:snap-bbox="true"
     inkscape:bbox-paths="true"
     inkscape:snap-bbox-edge-midpoints="true"
     fit-margin-top="0"
     fit-margin-left="0"
     fit-margin-right="0"
     fit-margin-bottom="0">
    <sodipodi:guide
       orientation="1,0"
       position="87.96129,121.59"
       id="guide2987" />
    <sodipodi:guide
       orientation="1,0"
       position="87.96129,121.87544"
       id="guide2989" />
    <inkscape:grid
       type="xygrid"
       id="grid3345"
       originx="-25.03"
       originy="51.59" />
  </sodipodi:namedview>
  <g
     id="g3821"
     transform="translate(-25.03,-94.533198)">
    <path
       d="m 44.69,94.59 c -9.91,-0.09 -9.76,-0.06 -9.64,0 0.12,0.09 0.57,0.6 0.96,1.11 1.77,2.34 3.21,5.85 3.57,8.73 0.21,1.56 0.03,3.27 -0.45,4.86 -0.69,2.31 -1.92,4.47 -4.23,7.44 -0.3,0.39 -0.57,0.72 -0.6,0.75 -0.03,0.06 0,0.15 0.18,0.78 0.54,1.68 1.38,4.44 1.68,5.49 l 0.09,0.42 0.39,0 c 1.47,0.09 2.76,0.51 3.96,1.29 1.83,1.23 3.06,3.21 3.39,5.52 0.09,0.45 0.12,1.29 0.06,1.74 -0.09,1.02 -0.33,1.83 -0.75,2.73 -0.84,1.71 -2.28,3.06 -4.02,3.72 l -0.33,0.12 0.03,1.26 c 0,1.74 -0.06,3.63 -0.21,4.62 -0.45,3.06 -2.19,5.49 -4.47,6.21 -0.57,0.18 -0.9,0.21 -1.59,0.21 -0.69,0 -1.02,-0.03 -1.65,-0.21 -1.14,-0.27 -2.13,-0.84 -2.94,-1.65 -0.99,-0.99 -1.56,-2.16 -1.71,-3.54 -0.09,-0.81 0.06,-1.53 0.45,-2.13 0.63,-0.99 1.83,-1.56 3,-1.53 1.5,0.09 2.64,1.32 2.73,2.94 0.06,1.47 -0.93,2.7 -2.37,2.97 -0.45,0.06 -0.84,0.03 -1.29,-0.09 l -0.21,-0.09 0.09,0.12 c 0.39,0.54 0.78,0.93 1.32,1.26 1.35,0.87 3.06,1.02 4.35,0.36 1.44,-0.72 2.52,-2.28 2.97,-4.35 0.15,-0.66 0.24,-1.5 0.3,-3.03 0.03,-0.84 0.03,-2.94 0,-3 -0.03,0 -0.18,0 -0.36,0.03 -0.66,0.12 -0.99,0.12 -1.83,0.12 -1.05,0 -1.71,-0.06 -2.61,-0.3 -4.02,-0.99 -7.11,-4.35 -7.8,-8.46 -0.12,-0.66 -0.12,-0.99 -0.12,-1.83 0,-0.84 0,-1.14 0.15,-1.92 0.36,-2.28 1.41,-4.62 3.3,-7.29 l 2.79,-3.6 c 0.54,-0.66 0.96,-1.2 0.96,-1.23 0,-0.03 -0.09,-0.33 -0.18,-0.69 -0.96,-3.21 -1.41,-5.28 -1.59,-7.68 -0.12,-1.38 -0.15,-3.09 -0.06,-3.96 0.33,-2.67 1.38,-5.07 3.12,-7.08 0.36,-0.42 0.99,-1.05 1.17,-1.14 z M 36.7,99.3 c -0.15,-0.3 -0.3,-0.54 -0.3,-0.54 -0.03,0 -0.18,0.09 -0.3,0.21 -2.4,1.74 -3.87,4.2 -4.26,7.11 -0.06,0.54 -0.06,1.41 -0.03,1.89 0.09,1.29 0.48,3.12 1.08,5.22 0.15,0.42 0.24,0.78 0.24,0.81 0,0.03 0.84,-1.11 1.23,-1.68 1.89,-2.73 2.88,-5.07 3.15,-7.53 0.09,-0.57 0.12,-1.74 0.06,-2.37 C 37.48,101.19 37.3,100.5 36.7,99.3 Z M 33.76,120 c -0.21,-0.72 -0.39,-1.32 -0.42,-1.32 0,0 -1.2,1.47 -1.86,2.37 -2.79,3.63 -4.02,6.3 -4.35,9.3 -0.03,0.21 -0.03,0.69 -0.03,1.08 0,0.69 0,0.75 0.06,1.11 0.12,0.54 0.27,0.99 0.51,1.47 0.69,1.38 1.83,2.55 3.42,3.42 0.96,0.54 2.07,0.9 3.21,1.08 0.78,0.12 2.04,0.12 2.94,-0.03 0.51,-0.06 0.45,-0.03 0.42,-0.3 -0.24,-3.33 -0.72,-6.33 -1.62,-10.08 -0.09,-0.39 -0.18,-0.75 -0.18,-0.78 -0.03,-0.03 -0.42,0 -0.81,0.09 -0.9,0.18 -1.65,0.57 -2.22,1.14 -0.72,0.72 -1.08,1.65 -1.05,2.64 0.06,0.96 0.48,1.83 1.23,2.58 0.36,0.36 0.72,0.63 1.17,0.9 0.33,0.18 0.36,0.21 0.42,0.33 0.18,0.42 -0.18,0.9 -0.6,0.87 -0.18,-0.03 -0.84,-0.36 -1.26,-0.63 -0.78,-0.51 -1.38,-1.11 -1.86,-1.83 -1.77,-2.7 -0.99,-6.42 1.71,-8.19 0.3,-0.21 0.81,-0.48 1.17,-0.63 0.3,-0.09 1.02,-0.3 1.14,-0.3 0.06,0 0.09,0 0.09,-0.03 0.03,-0.03 -0.51,-1.92 -1.23,-4.26 z m 3.78,7.41 c -0.18,-0.03 -0.36,-0.06 -0.39,-0.06 -0.03,0 0,0.21 0.18,1.02 0.75,3.18 1.26,6.3 1.5,9.09 0.06,0.72 0,0.69 0.51,0.42 0.78,-0.36 1.44,-0.96 1.98,-1.77 1.08,-1.62 1.2,-3.69 0.3,-5.55 -0.81,-1.62 -2.31,-2.79 -4.08,-3.15 z"
       style="fill:#000000;stroke:none"
       id="path3343"
       inkscape:connector-curvature="0" />
  </g>
</svg>
